<svg width="132" height="178" viewBox="0 0 132 178" fill="none" xmlns="http://www.w3.org/2000/svg">
<g id="SvgjsG4164">
<path id="Vector" d="M22.5168 55.9103V87.9989C22.5168 90.3463 20.6173 92.2651 18.2684 92.2651H17.6556C15.3067 92.2651 13.3867 90.3484 13.3867 87.9989V55.9103C13.3867 53.522 15.2658 51.644 17.6556 51.644H18.2684C20.6581 51.644 22.5168 53.522 22.5168 55.9103Z" fill="#39E991"/>
<path id="Vector_2" d="M39.8986 54.318V104.206C39.8986 106.513 37.9378 108.452 35.6298 108.452H34.9557C32.6068 108.452 30.7073 106.552 30.7073 104.206V54.318C30.7073 51.9297 32.566 50.0518 34.9557 50.0518H35.6298C37.9787 50.0518 39.8986 51.9705 39.8986 54.318Z" fill="#39E991"/>
<path id="Vector_3" d="M57.1989 52.7257V116.311C57.1989 118.658 55.279 120.557 52.9505 120.557H52.2764C49.9275 120.557 48.0076 118.658 48.0076 116.311V52.7257C48.0076 50.3783 49.9275 48.4595 52.2764 48.4595H52.9505C55.279 48.4595 57.1989 50.3783 57.1989 52.7257Z" fill="#39E991"/>
<path id="Vector_4" d="M131.322 128.579V130.479C131.322 136.297 126.586 141.012 120.762 141.012C94.5976 141.012 88.5926 141.012 86.8973 141.235V141.174C71.9868 143.786 60.8142 156.526 59.6112 172.221C59.3456 172.754 59.3252 173.385 59.5703 173.938C59.5703 173.958 59.5703 173.958 59.5703 173.979V174.591C58.1201 175.818 49.4598 178 34.4064 178C19.496 178 10.8561 175.857 9.30377 174.634C9.26292 172.103 8.91569 166.877 8.13953 164.448C7.874 163.693 7.58805 163.04 7.3021 162.386C6.50551 160.486 5.40255 158.608 4.07491 156.957C3.99321 156.855 3.91151 156.773 3.82981 156.691C3.74811 156.61 3.68683 156.528 3.62555 156.467C2.74727 155.467 1.95068 154.65 1.2358 153.997C0.234963 152.017 0.296239 150.486 0.398365 146.977C0.439216 145.711 0.480064 144.262 0.480064 142.507V85.7738C0.480064 78.5477 3.07407 72.7301 7.7106 69.3416V87.9171C7.7106 93.4081 12.1633 97.858 17.6373 97.858H18.3113C20.9053 97.858 23.2542 96.8578 25.0312 95.2452V104.127C25.0312 109.597 29.4839 114.045 34.9579 114.045H35.6319C38.2259 114.045 40.6157 113.047 42.3927 111.371V116.229C42.3927 121.7 46.8454 126.15 52.3194 126.15H52.9934C58.4674 126.15 62.9201 121.698 62.9201 116.229V64.3405H62.8384C63.0835 62.0543 63.063 55.5835 63.0222 34.9668C62.9813 20.3514 62.9201 5.77677 62.9201 5.77677C62.9201 2.5924 65.5141 0 68.7208 0H70.2527C73.5208 0 76.0923 2.55157 76.0923 5.77677C75.9085 104.39 76.0719 105.247 76.1352 105.533C77.2382 110.698 80.8534 115.007 85.8372 117.107C86.695 117.413 87.6346 117.781 88.6559 117.944C88.758 117.967 88.8601 117.967 88.9622 117.967L120.762 118.026C126.584 118.026 131.322 122.761 131.322 128.579Z" fill="#39E991"/>
</g>
</svg>
