<svg width="24" height="24" viewBox="0 0 24 24" fill="none" xmlns="http://www.w3.org/2000/svg">
<g id="Frame">
<path id="Vector" d="M11.1863 2.18628C16.1543 2.18628 20.1863 6.21828 20.1863 11.1863C20.1863 16.1543 16.1543 20.1863 11.1863 20.1863C6.21832 20.1863 2.18632 16.1543 2.18632 11.1863C2.18632 6.21828 6.21832 2.18628 11.1863 2.18628ZM11.1863 18.1863C15.0538 18.1863 18.1863 15.0538 18.1863 11.1863C18.1863 7.31878 15.0538 4.18628 11.1863 4.18628C7.31882 4.18628 4.18632 7.31878 4.18632 11.1863C4.18632 15.0538 7.31882 18.1863 11.1863 18.1863ZM19.6716 18.2574L22.5 21.0858L21.0858 22.5L18.2574 19.6716L19.6716 18.2574Z" fill="#AAAAAA"/>
</g>
</svg>
